REM DIRINDEX 1\8,1\2\11,1\3\12,1\3\14,1\5\15,1\5\16,1\6\17,1\6\18,1\4\19,1\4\20,1\4\21,1\4\22,1\7\23,1\7\24,1\7\25,1\2\9\26,1\2\9\27,1\2\10\28,1\2\10\29,1\2\10\30,1\2\10\31,1\2\10\32,1\3\13\33,1\3\13\34,1\3\13\35
REM DIRNAME folder01,folder02,folder03,folder04,folder05,folder06,folder07,folder08,folder09,folder10,folder11,folder12,folder13,folder14,folder15,folder16,folder17,folder18,folder19,folder20,folder21,folder22,folder23,folder24,folder25,folder26,folder27,folder28,folder29,folder30,folder31,folder32,folder33,folder34,folder35
TITLE ""
FILE "113 113_UNIT6_SET4.mp3" MP3
  TRACK 01 AUDIO
    TITLE "14:cjc123_2181"
    INDEX 01 00:00:00
  TRACK 02 AUDIO
    TITLE "0:"
    INDEX 01 00:02:53
  TRACK 03 AUDIO
    TITLE "33:cjc123_2182"
    INDEX 01 00:03:29
  TRACK 04 AUDIO
    TITLE "0:"
    INDEX 01 00:04:66
  TRACK 05 AUDIO
    TITLE "34:cjc123_2183"
    INDEX 01 00:05:26
  TRACK 06 AUDIO
    TITLE "0:"
    INDEX 01 00:06:59
  TRACK 07 AUDIO
    TITLE "35:cjc123_2184"
    INDEX 01 00:07:41
  TRACK 08 AUDIO
    TITLE "0:"
    INDEX 01 00:12:16
  TRACK 09 AUDIO
    TITLE "33:cjc123_2185"
    INDEX 01 00:12:63
  TRACK 10 AUDIO
    TITLE "0:"
    INDEX 01 00:14:29
  TRACK 11 AUDIO
    TITLE "34:cjc123_2186"
    INDEX 01 00:14:54
  TRACK 12 AUDIO
    TITLE "0:"
    INDEX 01 00:16:18
  TRACK 13 AUDIO
    TITLE "35:cjc123_2187"
    INDEX 01 00:16:67
  TRACK 14 AUDIO
    TITLE "0:"
    INDEX 01 00:21:27
  TRACK 15 AUDIO
    TITLE "33:cjc123_2188"
    INDEX 01 00:22:05
  TRACK 16 AUDIO
    TITLE "0:"
    INDEX 01 00:23:36
  TRACK 17 AUDIO
    TITLE "34:cjc123_2189"
    INDEX 01 00:23:57
  TRACK 18 AUDIO
    TITLE "0:"
    INDEX 01 00:24:74
  TRACK 19 AUDIO
    TITLE "35:cjc123_2190"
    INDEX 01 00:25:46
  TRACK 20 AUDIO
    TITLE "0:"
    INDEX 01 00:30:08
  TRACK 21 AUDIO
    TITLE "33:cjc123_2191"
    INDEX 01 00:30:61
  TRACK 22 AUDIO
    TITLE "0:"
    INDEX 01 00:32:05
  TRACK 23 AUDIO
    TITLE "34:cjc123_2192"
    INDEX 01 00:32:27
  TRACK 24 AUDIO
    TITLE "0:"
    INDEX 01 00:33:42
  TRACK 25 AUDIO
    TITLE "35:cjc123_2193"
    INDEX 01 00:34:16
  TRACK 26 AUDIO
    TITLE "0:"
    INDEX 01 00:38:47
  TRACK 27 AUDIO
    TITLE "33:cjc123_2194"
    INDEX 01 00:39:25
  TRACK 28 AUDIO
    TITLE "0:"
    INDEX 01 00:40:60
  TRACK 29 AUDIO
    TITLE "34:cjc123_2195"
    INDEX 01 00:40:70
  TRACK 30 AUDIO
    TITLE "0:"
    INDEX 01 00:42:12
  TRACK 31 AUDIO
    TITLE "35:cjc123_2196"
    INDEX 01 00:42:68
  TRACK 32 AUDIO
    TITLE "0:"
    INDEX 01 00:47:15
  TRACK 33 AUDIO
    TITLE "33:cjc123_2197"
    INDEX 01 00:47:64
  TRACK 34 AUDIO
    TITLE "0:"
    INDEX 01 00:49:29
  TRACK 35 AUDIO
    TITLE "34:cjc123_2198"
    INDEX 01 00:49:55
  TRACK 36 AUDIO
    TITLE "0:"
    INDEX 01 00:51:20
  TRACK 37 AUDIO
    TITLE "35:cjc123_2199"
    INDEX 01 00:51:71
  TRACK 38 AUDIO
    TITLE "0:"
    INDEX 01 00:57:21
  TRACK 39 AUDIO
    TITLE "33:cjc123_2200"
    INDEX 01 00:57:70
  TRACK 40 AUDIO
    TITLE "0:"
    INDEX 01 00:59:24
  TRACK 41 AUDIO
    TITLE "34:cjc123_2201"
    INDEX 01 00:59:45
  TRACK 42 AUDIO
    TITLE "0:"
    INDEX 01 01:01:03
  TRACK 43 AUDIO
    TITLE "35:cjc123_2202"
    INDEX 01 01:01:62
  TRACK 44 AUDIO
    TITLE "0:"
    INDEX 01 01:07:06
  TRACK 45 AUDIO
    TITLE "33:cjc123_2203"
    INDEX 01 01:07:61
  TRACK 46 AUDIO
    TITLE "0:"
    INDEX 01 01:09:14
  TRACK 47 AUDIO
    TITLE "34:cjc123_2204"
    INDEX 01 01:09:30
  TRACK 48 AUDIO
    TITLE "0:"
    INDEX 01 01:10:63
  TRACK 49 AUDIO
    TITLE "35:cjc123_2205"
    INDEX 01 01:11:51
  TRACK 50 AUDIO
    TITLE "0:"
    INDEX 01 01:15:15
  TRACK 51 AUDIO
    TITLE "33:cjc123_2206"
    INDEX 01 01:15:66
  TRACK 52 AUDIO
    TITLE "0:"
    INDEX 01 01:16:69
  TRACK 53 AUDIO
    TITLE "34:cjc123_2207"
    INDEX 01 01:17:14
  TRACK 54 AUDIO
    TITLE "0:"
    INDEX 01 01:18:29
  TRACK 55 AUDIO
    TITLE "35:cjc123_2208"
    INDEX 01 01:19:11
  TRACK 56 AUDIO
    TITLE "0:"
    INDEX 01 01:23:18
  TRACK 57 AUDIO
    TITLE "33:cjc123_2209"
    INDEX 01 01:23:73
  TRACK 58 AUDIO
    TITLE "0:"
    INDEX 01 01:26:03
  TRACK 59 AUDIO
    TITLE "34:cjc123_2210"
    INDEX 01 01:26:30
  TRACK 60 AUDIO
    TITLE "0:"
    INDEX 01 01:28:29
  TRACK 61 AUDIO
    TITLE "35:cjc123_2211"
    INDEX 01 01:29:01
  TRACK 62 AUDIO
    TITLE "0:"
    INDEX 01 01:34:69
  TRACK 63 AUDIO
    TITLE "33:cjc123_2212"
    INDEX 01 01:35:51
  TRACK 64 AUDIO
    TITLE "0:"
    INDEX 01 01:37:11
  TRACK 65 AUDIO
    TITLE "34:cjc123_2213"
    INDEX 01 01:37:44
  TRACK 66 AUDIO
    TITLE "0:"
    INDEX 01 01:39:02
  TRACK 67 AUDIO
    TITLE "35:cjc123_2214"
    INDEX 01 01:39:51
  TRACK 68 AUDIO
    TITLE "0:"
    INDEX 01 01:46:12
  TRACK 69 AUDIO
    TITLE "33:cjc123_2215"
    INDEX 01 01:46:65
  TRACK 70 AUDIO
    TITLE "0:"
    INDEX 01 01:48:38
  TRACK 71 AUDIO
    TITLE "34:cjc123_2216"
    INDEX 01 01:48:63
  TRACK 72 AUDIO
    TITLE "0:"
    INDEX 01 01:50:29
  TRACK 73 AUDIO
    TITLE "35:cjc123_2217"
    INDEX 01 01:51:01
  TRACK 74 AUDIO
    TITLE "0:"
    INDEX 01 01:55:24
  TRACK 75 AUDIO
    TITLE "33:cjc123_2218"
    INDEX 01 01:55:71
  TRACK 76 AUDIO
    TITLE "0:"
    INDEX 01 01:57:45
  TRACK 77 AUDIO
    TITLE "34:cjc123_2219"
    INDEX 01 01:57:68
  TRACK 78 AUDIO
    TITLE "0:"
    INDEX 01 01:59:36
  TRACK 79 AUDIO
    TITLE "35:cjc123_2220"
    INDEX 01 02:00:16
  TRACK 80 AUDIO
    TITLE "0:"
    INDEX 01 02:04:06
  TRACK 81 AUDIO
    TITLE "33:cjc123_2221"
    INDEX 01 02:04:55
  TRACK 82 AUDIO
    TITLE "0:"
    INDEX 01 02:06:24
  TRACK 83 AUDIO
    TITLE "34:cjc123_2222"
    INDEX 01 02:06:48
  TRACK 84 AUDIO
    TITLE "0:"
    INDEX 01 02:08:17
  TRACK 85 AUDIO
    TITLE "35:cjc123_2223"
    INDEX 01 02:08:70
  TRACK 86 AUDIO
    TITLE "0:"
    INDEX 01 02:15:27
  TRACK 87 AUDIO
    TITLE "33:cjc123_2224"
    INDEX 01 02:16:05
  TRACK 88 AUDIO
    TITLE "0:"
    INDEX 01 02:17:53
  TRACK 89 AUDIO
    TITLE "34:cjc123_2225"
    INDEX 01 02:18:10
  TRACK 90 AUDIO
    TITLE "0:"
    INDEX 01 02:19:62
  TRACK 91 AUDIO
    TITLE "35:cjc123_2226"
    INDEX 01 02:20:42
  TRACK 92 AUDIO
    TITLE "0:"
    INDEX 01 02:26:17
